<svg xmlns="http://www.w3.org/2000/svg" width="193.388" height="59" viewBox="0 0 193.388 59">
  <g id="Logo" transform="translate(0 0.04)">
    <path id="Path_1" data-name="Path 1" d="M170.688,214.992a.059.059,0,0,0-.026.016,74.533,74.533,0,0,0-17.174,20.362A74.432,74.432,0,0,0,136.317,215a.059.059,0,0,0-.026-.016,73.8,73.8,0,0,0-11.711-7.939l1.368,15.114.072.807.225,2.511,2.09,23.092h0l.519,5.692,3.68,2.227.026.02,5.121,3.1,3.207,1.94,1.812-4.281,4.1-9.693-6.329,8.347L133,251.385V224.058q1.215.454,2.381,1.006h.026a36.576,36.576,0,0,1,16.655,15.6q.79,1.434,1.44,2.939.653-1.512,1.44-2.939a36.576,36.576,0,0,1,16.655-15.6h.026c.774-.366,1.571-.7,2.381-1.006V251.4l-7.485,4.533-6.332-8.347,4.1,9.693,1.8,4.281,3.2-1.94,5.124-3.1.026-.02,3.68-2.227.516-5.692h0l2.09-23.092.225-2.511.075-.807L182.4,207.06a73.934,73.934,0,0,0-11.707,7.932Z" transform="translate(-124.58 -207.08)" fill="#ca582c"/>
    <path id="Path_2" data-name="Path 2" d="M188.913,260.156h-.026a36.576,36.576,0,0,0-16.655,15.6q-.784,1.434-1.44,2.939-.653-1.512-1.44-2.939a36.576,36.576,0,0,0-16.655-15.6h-.026q-1.166-.549-2.381-1.006v27.331l2.136-23.595h.023a31.478,31.478,0,0,1,15.63,14.529,30.874,30.874,0,0,1,2.7,7.436,31.025,31.025,0,0,1,2.7-7.436,31.5,31.5,0,0,1,15.63-14.529h.026l2.136,23.595V259.15C190.484,259.454,189.687,259.79,188.913,260.156Z" transform="translate(-141.894 -242.172)" fill="#dee2e6"/>
    <path id="Path_3" data-name="Path 3" d="M207.1,374.41a13.625,13.625,0,0,1-5.176,3.024.549.549,0,0,1-.327,0,13.638,13.638,0,0,1-5.173-3.024.549.549,0,0,1,.163-.908,13.755,13.755,0,0,1,10.359,0,.549.549,0,0,1,.153.908Z" transform="translate(-172.842 -318.499)" fill="#dee2e6"/>
    <path id="Path_4" data-name="Path 4" d="M316.113,333.78h1.744c.892,0,1.881.327,1.881,1.492a1.283,1.283,0,0,1-1.032,1.257v.016a1.4,1.4,0,0,1,1.306,1.463c0,.98-.833,1.617-2.178,1.617H316.1Zm.594,2.56h1.2c.568,0,1.238-.248,1.238-1.025s-.637-1.022-1.4-1.022H316.72Zm0,2.769h1.107c.859,0,1.61-.327,1.61-1.136s-.552-1.146-1.5-1.146h-1.2Z" transform="translate(-253.555 -292.431)" fill="#ca582c"/>
    <path id="Path_5" data-name="Path 5" d="M338.69,337.444V333.78h.594v3.592c0,.944.4,1.865,1.594,1.865s1.594-.921,1.594-1.865V333.78h.594v3.664a2.192,2.192,0,1,1-4.376,0Z" transform="translate(-268.768 -292.431)" fill="#ca582c"/>
    <path id="Path_6" data-name="Path 6" d="M367.064,334.419a1.408,1.408,0,0,0-1.205-.585,1.15,1.15,0,0,0-1.247,1.1c0,.751.62.934,1.27,1.15.826.271,1.734.536,1.734,1.708a1.723,1.723,0,0,1-1.907,1.682,2.244,2.244,0,0,1-1.839-.869l.509-.376a1.568,1.568,0,0,0,1.339.732,1.215,1.215,0,0,0,1.306-1.13c0-.816-.686-1.022-1.43-1.254s-1.568-.578-1.568-1.633a1.693,1.693,0,0,1,1.865-1.607,2.044,2.044,0,0,1,1.652.709Z" transform="translate(-285.725 -292.129)" fill="#ca582c"/>
    <path id="Path_7" data-name="Path 7" d="M388.064,339.626h-.594V333.78h.594Z" transform="translate(-301.618 -292.431)" fill="#ca582c"/>
    <path id="Path_8" data-name="Path 8" d="M406.461,338.75h0v-4.97h.594v5.846h-.745l-3.4-5.026h0v5.026h-.591V333.78h.741Z" transform="translate(-311.619 -292.431)" fill="#ca582c"/>
    <path id="Path_9" data-name="Path 9" d="M430.428,339.1h3.125v.529H429.83V333.78h3.625v.529h-3.027v2.012h2.828v.522h-2.828Z" transform="translate(-330.145 -292.431)" fill="#ca582c"/>
    <path id="Path_10" data-name="Path 10" d="M455.121,334.418a1.4,1.4,0,0,0-1.2-.585,1.15,1.15,0,0,0-1.247,1.1c0,.751.617.934,1.27,1.15.826.271,1.734.536,1.734,1.708a1.722,1.722,0,0,1-1.9,1.682,2.243,2.243,0,0,1-1.842-.869l.509-.376a1.561,1.561,0,0,0,1.339.732,1.215,1.215,0,0,0,1.306-1.13c0-.816-.689-1.022-1.43-1.254s-1.568-.578-1.568-1.633a1.693,1.693,0,0,1,1.865-1.607,2.028,2.028,0,0,1,1.649.709Z" transform="translate(-345.028 -292.128)" fill="#ca582c"/>
    <path id="Path_11" data-name="Path 11" d="M477.614,334.419a1.4,1.4,0,0,0-1.2-.585,1.148,1.148,0,0,0-1.247,1.1c0,.751.617.934,1.27,1.15.823.271,1.734.536,1.734,1.708a1.724,1.724,0,0,1-1.91,1.682,2.253,2.253,0,0,1-1.839-.869l.513-.376a1.558,1.558,0,0,0,1.336.732,1.213,1.213,0,0,0,1.306-1.13c0-.816-.686-1.022-1.427-1.254s-1.571-.578-1.571-1.633a1.7,1.7,0,0,1,1.868-1.607,2.031,2.031,0,0,1,1.649.709Z" transform="translate(-360.173 -292.129)" fill="#ca582c"/>
    <path id="Path_12" data-name="Path 12" d="M514.674,334.419a1.411,1.411,0,0,0-1.208-.585,1.147,1.147,0,0,0-1.244,1.1c0,.751.62.934,1.27,1.15.826.271,1.734.536,1.734,1.708a1.723,1.723,0,0,1-1.907,1.682,2.247,2.247,0,0,1-1.839-.869l.509-.376a1.558,1.558,0,0,0,1.339.732,1.215,1.215,0,0,0,1.306-1.13c0-.816-.686-1.022-1.427-1.254s-1.568-.578-1.568-1.633a1.693,1.693,0,0,1,1.865-1.607,2.031,2.031,0,0,1,1.649.709Z" transform="translate(-385.13 -292.129)" fill="#ca582c"/>
    <path id="Path_13" data-name="Path 13" d="M537.062,339.469a3.07,3.07,0,1,1,3.047-3.07,2.972,2.972,0,0,1-3.047,3.07Zm0-5.62a2.549,2.549,0,1,0,2.42,2.551A2.409,2.409,0,0,0,537.062,333.849Z" transform="translate(-400.276 -292.128)" fill="#ca582c"/>
    <path id="Path_14" data-name="Path 14" d="M565.4,339.1h2.733v.529H564.81V333.78h.594Z" transform="translate(-421.044 -292.431)" fill="#ca582c"/>
    <path id="Path_15" data-name="Path 15" d="M585.23,337.444V333.78h.594v3.592c0,.944.4,1.865,1.594,1.865s1.594-.921,1.594-1.865V333.78h.591v3.664a2.191,2.191,0,1,1-4.373,0Z" transform="translate(-434.796 -292.431)" fill="#ca582c"/>
    <path id="Path_16" data-name="Path 16" d="M611.984,339.626h-.594v-5.317H609.43v-.529h4.507v.529h-1.959Z" transform="translate(-451.093 -292.431)" fill="#ca582c"/>
    <path id="Path_17" data-name="Path 17" d="M634.768,339.626h-.6V333.78h.6Z" transform="translate(-467.753 -292.431)" fill="#ca582c"/>
    <path id="Path_18" data-name="Path 18" d="M650.962,339.469a3.07,3.07,0,1,1,3.047-3.07,2.975,2.975,0,0,1-3.047,3.07Zm0-5.62a2.549,2.549,0,1,0,2.417,2.551A2.413,2.413,0,0,0,650.962,333.849Z" transform="translate(-476.979 -292.128)" fill="#ca582c"/>
    <path id="Path_19" data-name="Path 19" d="M682.841,338.75h.02v-4.97h.591v5.846h-.735l-3.4-5.026H679.3v5.026h-.6V333.78h.751Z" transform="translate(-497.741 -292.431)" fill="#ca582c"/>
    <path id="Path_20" data-name="Path 20" d="M708.327,334.42a1.4,1.4,0,0,0-1.205-.585,1.15,1.15,0,0,0-1.247,1.1c0,.751.62.934,1.274,1.15.823.271,1.731.536,1.731,1.708a1.723,1.723,0,0,1-1.907,1.682,2.253,2.253,0,0,1-1.842-.869l.513-.376a1.561,1.561,0,0,0,1.336.732,1.211,1.211,0,0,0,1.306-1.13c0-.816-.686-1.022-1.427-1.254s-1.571-.578-1.571-1.633a1.694,1.694,0,0,1,1.868-1.607,2.025,2.025,0,0,1,1.633.709Z" transform="translate(-515.54 -292.13)" fill="#ca582c"/>
    <path id="Path_21" data-name="Path 21" d="M316.27,246.66c2.443,2.475,11.936,17.85,12.142,17.85,0,0,9.777-15.4,12.207-17.85v22.563h-3.713l.088-12.063-8.184,12.063h-.98l-7.674-11.773H320.1l-3.824,11.773Z" transform="translate(-253.67 -233.761)" fill="#dee2e6"/>
    <path id="Path_22" data-name="Path 22" d="M473.384,265.712h3.347c4.144,0,8.8-1.692,8.8-7.779,0-6.469-4.654-7.838-8.8-7.838h-3.347v13l-4.014-5.16V246.66h8c5.878,0,12.459,2.8,12.459,11.28,0,7.906-6.567,11.283-12.459,11.283h-8v-8.507Z" transform="translate(-356.772 -233.761)" fill="#dee2e6"/>
    <path id="Path_23" data-name="Path 23" d="M538.36,246.66h14.578v3.5H542.39v6.182h9.928l-9.944,3.38v9.5H538.36Z" transform="translate(-403.232 -233.761)" fill="#dee2e6"/>
    <path id="Path_24" data-name="Path 24" d="M664.348,260.568l-6.6-9.908h4.572l4.383,7.266,4.324-7.266h4.35l-6.482,10,7.625,11.257-9.967-8.347-4.977,8.347H657Z" transform="translate(-483.128 -236.455)" fill="#dee2e6"/>
    <path id="Path_25" data-name="Path 25" d="M284.536,39.58h-3.475l-8,22.563,9.627-17.785,3.014,7.965L278.4,53.884l8.256.856.911,2.24,2.106,5.163h4.585Z" transform="translate(-183.887 -26.681)" fill="#dee2e6"/>
    <path id="Path_26" data-name="Path 26" d="M591.478,261.268a7.149,7.149,0,0,1-1.584-4.487,7.243,7.243,0,0,1,7.217-7.243,7.155,7.155,0,0,1,3.227.771l2.939-3.654a11.757,11.757,0,0,0-6.169-1.744,11.907,11.907,0,0,0-11.858,11.9,11.757,11.757,0,0,0,3.266,8.109Z" transform="translate(-434.809 -232.583)" fill="#dee2e6"/>
    <path id="Path_27" data-name="Path 27" d="M614.993,261.77l-3.592,3a7.217,7.217,0,0,1-10.849,9.026l-3.612,3A11.838,11.838,0,0,0,615,261.777Z" transform="translate(-442.682 -243.937)" fill="#e9ecef"/>
  </g>
</svg>
