<?xml version="1.0" encoding="utf-8"?>
<!-- Generator: Adobe Illustrator 25.0.0, SVG Export Plug-In . SVG Version: 6.00 Build 0)  -->
<svg version="1.1" id="Layer_1" xmlns="http://www.w3.org/2000/svg" xmlns:xlink="http://www.w3.org/1999/xlink" x="0px" y="0px"
	 viewBox="0 0 100 125" style="enable-background:new 0 0 100 125;" xml:space="preserve">
<path d="M50,110.5c-12.6,0-41.9-1.5-41.9-15.1c0-18.9,15.2-34.6,35-37.6c-8.9-2.9-15.3-11.3-15.3-21.1c0-12.2,10-22.2,22.2-22.2
	s22.2,10,22.2,22.2c0,9.8-6.4,18.2-15.3,21.1c19.8,3,35,18.7,35,37.6C91.9,109.4,59.8,110.5,50,110.5z M17.7,95.1
	c1.5,2,12.5,5.8,32.3,5.8s30.8-3.7,32.3-5.8C82.1,79.5,67.7,66.9,50,66.9S17.9,79.5,17.7,95.1z M50,24.1c-6.9,0-12.6,5.7-12.6,12.6
	c0,6.9,5.7,12.6,12.6,12.6c6.9,0,12.6-5.7,12.6-12.6C62.6,29.8,56.9,24.1,50,24.1z"/>
</svg>
