<?xml version="1.0" encoding="utf-8"?>
<!-- Generator: Adobe Illustrator 25.0.0, SVG Export Plug-In . SVG Version: 6.00 Build 0)  -->
<svg version="1.1" xmlns="http://www.w3.org/2000/svg" xmlns:xlink="http://www.w3.org/1999/xlink" x="0px" y="0px"
	 viewBox="0 0 100 125" style="enable-background:new 0 0 100 125;" xml:space="preserve">
<g id="Layer_2">
</g>
<g id="Layer_1">
	<g>
		<path d="M95.4,37.4c-1.8-2.3-4.6-3.7-7.5-3.7H27l-1.9-7.4C24,22,20.2,19,15.8,19H5.6c-1.7,0-3.1,1.4-3.1,3.1
			c0,1.7,1.4,3.1,3.1,3.1h10.2c1.5,0,2.8,1,3.2,2.5l12.2,48.6c1.1,4.3,4.9,7.3,9.3,7.3h39.9c4.4,0,8.3-3,9.3-7.3l7.5-30.8
			C97.9,42.7,97.3,39.7,95.4,37.4z M91.1,44.1l-7.5,30.8c-0.4,1.5-1.7,2.5-3.2,2.5H40.5c-1.5,0-2.8-1-3.2-2.5L28.6,40h59.3
			c1,0,2,0.5,2.6,1.3C91.1,42.1,91.4,43.1,91.1,44.1z"/>
		<path d="M42.6,87.6c-5.7,0-10.4,4.7-10.4,10.4c0,5.7,4.7,10.4,10.4,10.4S53,103.7,53,98C53,92.3,48.3,87.6,42.6,87.6z M42.6,102.1
			c-2.3,0-4.1-1.8-4.1-4.1c0-2.3,1.8-4.1,4.1-4.1s4.1,1.8,4.1,4.1C46.7,100.2,44.8,102.1,42.6,102.1z"/>
		<path d="M77,87.6c-5.7,0-10.4,4.7-10.4,10.4c0,5.7,4.7,10.4,10.4,10.4c5.7,0,10.4-4.7,10.4-10.4C87.3,92.3,82.7,87.6,77,87.6z
			 M77,102.1c-2.3,0-4.1-1.8-4.1-4.1c0-2.3,1.8-4.1,4.1-4.1c2.3,0,4.1,1.8,4.1,4.1C81.1,100.2,79.2,102.1,77,102.1z"/>
	</g>
</g>
</svg>
