<?xml version="1.0" encoding="utf-8"?>
<!-- Generator: Adobe Illustrator 25.0.0, SVG Export Plug-In . SVG Version: 6.00 Build 0)  -->
<svg version="1.1" id="Layer_1" xmlns="http://www.w3.org/2000/svg" xmlns:xlink="http://www.w3.org/1999/xlink" x="0px" y="0px"
	 viewBox="0 0 28.3 28.3" style="enable-background:new 0 0 28.3 28.3;" xml:space="preserve">
<style type="text/css">
	.st0{fill:#FFFFFF;}
</style>
<g id="Layer_2_1_">
</g>
<g id="Layer_1_1_">
	<g>
		<path class="st0" d="M26.8,6.9c-0.5-0.6-1.3-1-2.1-1H7.8L7.3,3.8c-0.3-1.2-1.4-2-2.6-2H1.9C1.4,1.8,1,2.2,1,2.6s0.4,0.9,0.9,0.9
			h2.8c0.4,0,0.8,0.3,0.9,0.7L9,17.7c0.3,1.2,1.4,2,2.6,2h11.1c1.2,0,2.3-0.8,2.6-2l2.1-8.5C27.5,8.3,27.3,7.5,26.8,6.9z M25.6,8.7
			l-2.1,8.5C23.4,17.7,23,18,22.6,18H11.5c-0.4,0-0.8-0.3-0.9-0.7L8.2,7.6h16.5c0.3,0,0.6,0.1,0.7,0.4C25.6,8.2,25.7,8.5,25.6,8.7z"
			/>
		<path class="st0" d="M12.1,20.8c-1.6,0-2.9,1.3-2.9,2.9c0,1.6,1.3,2.9,2.9,2.9s2.9-1.3,2.9-2.9S13.7,20.8,12.1,20.8z M12.1,24.8
			c-0.6,0-1.1-0.5-1.1-1.1c0-0.6,0.5-1.1,1.1-1.1s1.1,0.5,1.1,1.1C13.3,24.3,12.7,24.8,12.1,24.8z"/>
		<path class="st0" d="M21.7,20.8c-1.6,0-2.9,1.3-2.9,2.9c0,1.6,1.3,2.9,2.9,2.9c1.6,0,2.9-1.3,2.9-2.9
			C24.5,22.1,23.2,20.8,21.7,20.8z M21.7,24.8c-0.6,0-1.1-0.5-1.1-1.1c0-0.6,0.5-1.1,1.1-1.1s1.1,0.5,1.1,1.1
			C22.8,24.3,22.3,24.8,21.7,24.8z"/>
	</g>
</g>
</svg>
