<?xml version="1.0" encoding="utf-8"?>
<!-- Generator: Adobe Illustrator 25.0.0, SVG Export Plug-In . SVG Version: 6.00 Build 0)  -->
<svg version="1.1" id="Layer_1" xmlns="http://www.w3.org/2000/svg" xmlns:xlink="http://www.w3.org/1999/xlink" x="0px" y="0px"
	 viewBox="0 0 28.3 28.3" style="enable-background:new 0 0 28.3 28.3;" xml:space="preserve">
<style type="text/css">
	.st0{fill:#FFFFFF;}
</style>
<path class="st0" d="M14.2,27.4c-3.5,0-11.5-0.4-11.5-4.2c0-5.2,4.2-9.5,9.6-10.3c-2.4-0.8-4.2-3.1-4.2-5.8c0-3.4,2.8-6.1,6.1-6.1
	s6.1,2.8,6.1,6.1c0,2.7-1.8,5-4.2,5.8c5.4,0.8,9.6,5.1,9.6,10.3C25.7,27.1,16.9,27.4,14.2,27.4z M5.3,23.1c0.4,0.5,3.4,1.6,8.9,1.6
	s8.5-1,8.9-1.6c-0.1-4.3-4-7.8-8.9-7.8S5.3,18.8,5.3,23.1z M14.2,3.6c-1.9,0-3.5,1.6-3.5,3.5s1.6,3.5,3.5,3.5s3.5-1.6,3.5-3.5
	S16.1,3.6,14.2,3.6z"/>
</svg>
