<?xml version="1.0" encoding="utf-8"?>
<!-- Generator: Adobe Illustrator 25.0.0, SVG Export Plug-In . SVG Version: 6.00 Build 0)  -->
<svg version="1.1" id="Layer_1" xmlns="http://www.w3.org/2000/svg" xmlns:xlink="http://www.w3.org/1999/xlink" x="0px" y="0px"
	 viewBox="0 0 28.3 28.3" style="enable-background:new 0 0 28.3 28.3;" xml:space="preserve">
<style type="text/css">
	.st0{fill:#FFFFFF;}
</style>
<g>
	<path class="st0" d="M27.4,25.2l-6.9-6.9c3.7-4.8,2.7-11.7-2.1-15.4S6.6,0.1,2.9,4.9S0.2,16.7,5,20.4c3.9,3,9.4,3,13.3,0l6.9,6.9
		c0.6,0.6,1.5,0.6,2.1,0S27.9,25.8,27.4,25.2L27.4,25.2z M3.8,11.7c0-4.4,3.5-7.9,7.9-7.9s7.9,3.5,7.9,7.9c0,2.1-0.8,4.1-2.3,5.6
		l0,0l0,0c-3.1,3.1-8.1,3.1-11.2,0C4.6,15.8,3.8,13.7,3.8,11.7z"/>
</g>
</svg>
