<?xml version="1.0" encoding="utf-8"?>
<!-- Generator: Adobe Illustrator 25.0.0, SVG Export Plug-In . SVG Version: 6.00 Build 0)  -->
<svg version="1.1"
	 id="Layer_1" xmlns:cc="http://creativecommons.org/ns#" xmlns:dc="http://purl.org/dc/elements/1.1/" xmlns:inkscape="http://www.inkscape.org/namespaces/inkscape" xmlns:rdf="http://www.w3.org/1999/02/22-rdf-syntax-ns#" xmlns:sodipodi="http://sodipodi.sourceforge.net/DTD/sodipodi-0.dtd" xmlns:svg="http://www.w3.org/2000/svg"
	 xmlns="http://www.w3.org/2000/svg" xmlns:xlink="http://www.w3.org/1999/xlink" x="0px" y="0px" viewBox="0 0 100 125"
	 style="enable-background:new 0 0 100 125;" xml:space="preserve">
<style type="text/css">
	.st0{fill:#FFFFFF;}
</style>
<g transform="translate(0,-952.36218)">
	<path class="st0" d="M30.8,976.5c-6.2,0-12.4,2.5-16.9,7.4c-9.2,9.9-9.1,25.6,0,35.5l32.5,35.3c1.9,2,5,2.2,7.1,0.3
		c0.1-0.1,0.2-0.2,0.3-0.3c10.8-11.8,21.7-23.5,32.5-35.3c9.2-9.9,9.2-25.6,0-35.5s-24.7-9.9-33.8,0l-2.3,2.5l-2.3-2.5
		C43.1,979,36.9,976.5,30.8,976.5z M30.8,986.2c3.4,0,6.8,1.5,9.6,4.5l6,6.5c1.9,2,5,2.2,7.1,0.3c0.1-0.1,0.2-0.2,0.3-0.3l6-6.5
		c5.5-6,13.6-6,19.1,0s5.5,16,0,22c-9.6,10.4-19.2,20.8-28.8,31.3l-28.8-31.3c-5.5-6-5.5-16,0-22C24,987.7,27.4,986.2,30.8,986.2
		L30.8,986.2z"/>
</g>
</svg>
