<?xml version="1.0" encoding="utf-8"?>
<!-- Generator: Adobe Illustrator 25.0.0, SVG Export Plug-In . SVG Version: 6.00 Build 0)  -->
<svg version="1.1"
	 id="Layer_1" xmlns:cc="http://creativecommons.org/ns#" xmlns:dc="http://purl.org/dc/elements/1.1/" xmlns:inkscape="http://www.inkscape.org/namespaces/inkscape" xmlns:rdf="http://www.w3.org/1999/02/22-rdf-syntax-ns#" xmlns:sodipodi="http://sodipodi.sourceforge.net/DTD/sodipodi-0.dtd" xmlns:svg="http://www.w3.org/2000/svg"
	 xmlns="http://www.w3.org/2000/svg" xmlns:xlink="http://www.w3.org/1999/xlink" x="0px" y="0px" viewBox="0 0 28.3 28.3"
	 style="enable-background:new 0 0 28.3 28.3;" xml:space="preserve">
<style type="text/css">
	.st0{fill:#FFFFFF;}
</style>
<g transform="translate(0,-952.36218)">
	<path class="st0" d="M8.4,954.4c-1.9,0-3.8,0.8-5.2,2.3c-2.8,3-2.8,7.8,0,10.8l9.9,10.8c0.6,0.6,1.5,0.7,2.2,0.1
		c0,0,0.1-0.1,0.1-0.1c3.3-3.6,6.6-7.2,9.9-10.8c2.8-3,2.8-7.8,0-10.8c-2.8-3-7.5-3-10.3,0l-0.7,0.8l-0.7-0.8
		C12.2,955.1,10.3,954.4,8.4,954.4z M8.4,957.3c1,0,2.1,0.5,2.9,1.4l1.8,2c0.6,0.6,1.5,0.7,2.2,0.1c0,0,0.1-0.1,0.1-0.1l1.8-2
		c1.7-1.8,4.1-1.8,5.8,0c1.7,1.8,1.7,4.9,0,6.7c-2.9,3.2-5.9,6.3-8.8,9.5l-8.8-9.5c-1.7-1.8-1.7-4.9,0-6.7
		C6.3,957.8,7.4,957.3,8.4,957.3L8.4,957.3z"/>
</g>
</svg>
